<?xml version="1.0" encoding="UTF-8"?>
<!DOCTYPE svg PUBLIC "-//W3C//DTD SVG 1.1//EN" "http://www.w3.org/Graphics/SVG/1.1/DTD/svg11.dtd">
<svg xmlns="http://www.w3.org/2000/svg" version="1.1" width="128px" height="128px" style="shape-rendering:geometricPrecision; text-rendering:geometricPrecision; image-rendering:optimizeQuality; fill-rule:evenodd; clip-rule:evenodd" xmlns:xlink="http://www.w3.org/1999/xlink">
<g><path style="opacity:1" fill="#020405" d="M -0.5,-0.5 C 22.1667,-0.5 44.8333,-0.5 67.5,-0.5C 62.8333,0.166667 58.1667,0.833333 53.5,1.5C 43.4879,2.34942 34.4879,5.68275 26.5,11.5C 4.2016,28.3725 -4.13173,50.7059 1.5,78.5C 0.833333,77.5 0.166667,76.5 -0.5,75.5C -0.5,50.1667 -0.5,24.8333 -0.5,-0.5 Z"/></g>
<g><path style="opacity:1" fill="#040909" d="M 67.5,-0.5 C 87.5,-0.5 107.5,-0.5 127.5,-0.5C 127.5,26.1667 127.5,52.8333 127.5,79.5C 126.833,79.8333 126.167,80.1667 125.5,80.5C 126.626,71.0088 126.626,61.6755 125.5,52.5C 121.411,27.236 107.078,10.736 82.5,3C 72.884,1.67605 63.2173,1.17605 53.5,1.5C 58.1667,0.833333 62.8333,0.166667 67.5,-0.5 Z"/></g>
<g><path style="opacity:1" fill="#0c0b0f" d="M 71.5,6.5 C 70.791,7.40397 69.791,7.73731 68.5,7.5C 68.5,8.5 68.5,9.5 68.5,10.5C 70.1998,10.3739 71.6998,9.70728 73,8.5C 74.5589,9.02937 76.0589,9.69604 77.5,10.5C 79.198,9.31916 80.8647,9.31916 82.5,10.5C 80.1629,11.517 78.4963,13.1837 77.5,15.5C 78.0253,16.1924 78.6919,16.6924 79.5,17C 77.404,17.7365 75.7373,18.9032 74.5,20.5C 69.3517,19.9264 64.5184,20.593 60,22.5C 59.6012,22.2716 59.4346,21.9382 59.5,21.5C 55.7016,20.5166 51.7016,20.1832 47.5,20.5C 47.1984,23.0593 47.5318,25.3926 48.5,27.5C 49.9187,28.4511 51.5853,28.7845 53.5,28.5C 54.1667,24.5 54.8333,24.5 55.5,28.5C 56.5,28.5 57.5,28.5 58.5,28.5C 58.5,27.1667 58.5,25.8333 58.5,24.5C 59.5,24.5 60.5,24.5 61.5,24.5C 61.5,25.8333 61.5,27.1667 61.5,28.5C 64.1667,28.5 66.8333,28.5 69.5,28.5C 69.281,27.325 69.6143,26.325 70.5,25.5C 71.4287,26.6888 71.762,28.0222 71.5,29.5C 72.8333,29.5 74.1667,29.5 75.5,29.5C 75.5,30.5 75.5,31.5 75.5,32.5C 61.0351,34.7542 61.0351,35.7542 75.5,35.5C 67.036,37.7013 58.3694,38.0346 49.5,36.5C 62.5065,35.0695 62.5065,33.9029 49.5,33C 48.0611,32.0094 47.0611,30.676 46.5,29C 45.552,28.5172 44.552,28.3505 43.5,28.5C 43.5,27.8333 43.1667,27.5 42.5,27.5C 42.5,27.1667 42.5,26.8333 42.5,26.5C 38.3656,25.5151 34.0323,25.1818 29.5,25.5C 29.5,26.5 29.5,27.5 29.5,28.5C 25.347,28.2015 23.347,30.2015 23.5,34.5C 22.8333,34.5 22.1667,34.5 21.5,34.5C 21.4684,30.3658 23.4684,27.8658 27.5,27C 24.8758,26.4236 24.2092,25.0902 25.5,23C 30.7335,23.8701 36.0669,24.3701 41.5,24.5C 41.7592,20.7604 41.4259,17.0938 40.5,13.5C 41.5076,11.5008 42.841,9.83416 44.5,8.5C 53.3449,5.50892 62.3449,4.84225 71.5,6.5 Z"/></g>
<g><path style="opacity:1" fill="#2de5e9" d="M 26.5,11.5 C 28.0447,12.5804 29.5447,12.5804 31,11.5C 32.0299,11.8361 32.5299,12.5028 32.5,13.5C 12.3969,27.368 3.3969,46.368 5.5,70.5C 5.5,71.8333 5.5,73.1667 5.5,74.5C 5.42305,78.2148 5.75638,81.8815 6.5,85.5C 5.5,85.5 4.5,85.5 3.5,85.5C 2.83333,83.1667 2.16667,80.8333 1.5,78.5C -4.13173,50.7059 4.2016,28.3725 26.5,11.5 Z"/></g>
<g><path style="opacity:1" fill="#0d1316" d="M 44.5,8.5 C 42.841,9.83416 41.5076,11.5008 40.5,13.5C 41.4259,17.0938 41.7592,20.7604 41.5,24.5C 36.0669,24.3701 30.7335,23.8701 25.5,23C 24.2092,25.0902 24.8758,26.4236 27.5,27C 23.4684,27.8658 21.4684,30.3658 21.5,34.5C 19.5992,34.2465 18.9326,34.5798 19.5,35.5C 18.1944,37.8162 16.8611,40.1495 15.5,42.5C 14.0689,42.1193 13.2355,41.1193 13,39.5C 12.5,41 12,42.5 11.5,44C 13.0028,45.9214 13.6695,48.088 13.5,50.5C 13.5,51.1667 13.5,51.8333 13.5,52.5C 11.9886,55.5443 11.322,58.8776 11.5,62.5C 9.01945,62.6766 7.18612,61.6766 6,59.5C 5.50137,63.1516 5.3347,66.8183 5.5,70.5C 3.3969,46.368 12.3969,27.368 32.5,13.5C 36.2403,11.2991 40.2403,9.63244 44.5,8.5 Z"/></g>
<g><path style="opacity:1" fill="#470f27" d="M 59.5,21.5 C 57.6064,22.0476 55.9397,23.0476 54.5,24.5C 53.914,24.2907 53.414,23.9574 53,23.5C 51.5315,24.9893 50.0315,26.3226 48.5,27.5C 47.5318,25.3926 47.1984,23.0593 47.5,20.5C 51.7016,20.1832 55.7016,20.5166 59.5,21.5 Z"/></g>
<g><path style="opacity:1" fill="#2be8ec" d="M 53.5,1.5 C 63.2173,1.17605 72.884,1.67605 82.5,3C 107.078,10.736 121.411,27.236 125.5,52.5C 125.666,59.175 125.5,65.8417 125,72.5C 124.056,68.3908 123.222,64.3908 122.5,60.5C 122.26,55.8799 121.26,51.5465 119.5,47.5C 112.149,23.8224 96.1489,10.1558 71.5,6.5C 62.3449,4.84225 53.3449,5.50892 44.5,8.5C 40.2403,9.63244 36.2403,11.2991 32.5,13.5C 32.5299,12.5028 32.0299,11.8361 31,11.5C 29.5447,12.5804 28.0447,12.5804 26.5,11.5C 34.4879,5.68275 43.4879,2.34942 53.5,1.5 Z"/></g>
<g><path style="opacity:1" fill="#651639" d="M 74.5,20.5 C 78.4557,21.0527 78.4557,21.8861 74.5,23C 76.687,24.025 78.3536,25.525 79.5,27.5C 79.5,28.1667 79.5,28.8333 79.5,29.5C 77.7274,30.3143 77.2274,31.6476 78,33.5C 79.1827,32.269 80.3493,32.269 81.5,33.5C 79.8489,35.4021 79.5155,37.4021 80.5,39.5C 79.675,40.3857 78.675,40.719 77.5,40.5C 77.6107,39.8826 77.944,39.3826 78.5,39C 77.643,37.7772 76.643,36.6106 75.5,35.5C 61.0351,35.7542 61.0351,34.7542 75.5,32.5C 75.5,31.5 75.5,30.5 75.5,29.5C 74.1667,29.5 72.8333,29.5 71.5,29.5C 71.762,28.0222 71.4287,26.6888 70.5,25.5C 69.6143,26.325 69.281,27.325 69.5,28.5C 66.8333,28.5 64.1667,28.5 61.5,28.5C 61.5,27.1667 61.5,25.8333 61.5,24.5C 60.5,24.5 59.5,24.5 58.5,24.5C 58.5,25.8333 58.5,27.1667 58.5,28.5C 57.5,28.5 56.5,28.5 55.5,28.5C 54.8333,24.5 54.1667,24.5 53.5,28.5C 51.5853,28.7845 49.9187,28.4511 48.5,27.5C 50.0315,26.3226 51.5315,24.9893 53,23.5C 53.414,23.9574 53.914,24.2907 54.5,24.5C 55.9397,23.0476 57.6064,22.0476 59.5,21.5C 59.4346,21.9382 59.6012,22.2716 60,22.5C 64.5184,20.593 69.3517,19.9264 74.5,20.5 Z"/></g>
<g><path style="opacity:1" fill="#cf1b8a" d="M 42.5,26.5 C 42.5,26.8333 42.5,27.1667 42.5,27.5C 38.7016,28.4834 34.7016,28.8168 30.5,28.5C 34.0293,26.5772 38.0293,25.9106 42.5,26.5 Z"/></g>
<g><path style="opacity:1" fill="#080d11" d="M 71.5,6.5 C 96.1489,10.1558 112.149,23.8224 119.5,47.5C 118.685,48.4293 117.852,49.4293 117,50.5C 116.666,48.1527 116.833,45.8194 117.5,43.5C 115.131,43.8511 112.797,44.0178 110.5,44C 111.333,43.1667 112.167,42.3333 113,41.5C 113.718,42.4506 114.551,42.6172 115.5,42C 113.919,39.0016 112.753,35.835 112,32.5C 109.093,31.7562 106.927,30.0895 105.5,27.5C 105.167,27.6667 104.833,27.8333 104.5,28C 107.081,31.2485 108.747,34.9152 109.5,39C 108.833,39.3333 108.167,39.6667 107.5,40C 108.337,41.0113 108.67,42.1779 108.5,43.5C 106.376,39.6005 103.543,36.2672 100,33.5C 100.175,30.1824 98.6754,28.1824 95.5,27.5C 94.8333,27.1667 94.1667,26.8333 93.5,26.5C 88.7897,25.0553 84.1231,25.3887 79.5,27.5C 78.3536,25.525 76.687,24.025 74.5,23C 78.4557,21.8861 78.4557,21.0527 74.5,20.5C 75.7373,18.9032 77.404,17.7365 79.5,17C 78.6919,16.6924 78.0253,16.1924 77.5,15.5C 78.4963,13.1837 80.1629,11.517 82.5,10.5C 80.8647,9.31916 79.198,9.31916 77.5,10.5C 76.0589,9.69604 74.5589,9.02937 73,8.5C 71.6998,9.70728 70.1998,10.3739 68.5,10.5C 68.5,9.5 68.5,8.5 68.5,7.5C 69.791,7.73731 70.791,7.40397 71.5,6.5 Z"/></g>
<g><path style="opacity:1" fill="#4aceea" d="M 93.5,26.5 C 94.1667,26.8333 94.8333,27.1667 95.5,27.5C 91.3537,28.647 87.0204,28.8136 82.5,28C 85.9582,26.5845 89.6249,26.0845 93.5,26.5 Z"/></g>
<g><path style="opacity:1" fill="#6b1b50" d="M 42.5,26.5 C 38.0293,25.9106 34.0293,26.5772 30.5,28.5C 30.5,28.8333 30.5,29.1667 30.5,29.5C 28.901,29.2322 27.5676,29.5655 26.5,30.5C 26.4456,32.632 25.4456,33.9653 23.5,34.5C 23.347,30.2015 25.347,28.2015 29.5,28.5C 29.5,27.5 29.5,26.5 29.5,25.5C 34.0323,25.1818 38.3656,25.5151 42.5,26.5 Z"/></g>
<g><path style="opacity:1" fill="#ad346f" d="M 42.5,27.5 C 43.1667,27.5 43.5,27.8333 43.5,28.5C 43.5,28.8333 43.5,29.1667 43.5,29.5C 39.1667,29.5 34.8333,29.5 30.5,29.5C 30.5,29.1667 30.5,28.8333 30.5,28.5C 34.7016,28.8168 38.7016,28.4834 42.5,27.5 Z"/></g>
<g><path style="opacity:1" fill="#676979" d="M 26.5,30.5 C 27.6211,32.0894 27.4544,33.7561 26,35.5C 23.9893,37.6776 21.8227,39.6776 19.5,41.5C 20.0476,39.6064 21.0476,37.9397 22.5,36.5C 21.675,35.6143 20.675,35.281 19.5,35.5C 18.9326,34.5798 19.5992,34.2465 21.5,34.5C 22.1667,34.5 22.8333,34.5 23.5,34.5C 25.4456,33.9653 26.4456,32.632 26.5,30.5 Z"/></g>
<g><path style="opacity:1" fill="#0f1013" d="M 26.5,30.5 C 27.5676,29.5655 28.901,29.2322 30.5,29.5C 34.8333,29.5 39.1667,29.5 43.5,29.5C 46.0764,29.7218 46.9098,31.0551 46,33.5C 42.3859,32.26 41.7192,33.26 44,36.5C 44.8382,37.999 45.6715,38.3324 46.5,37.5C 47.7079,38.2341 49.0413,38.5674 50.5,38.5C 50.5,39.5 50.5,40.5 50.5,41.5C 53.6145,41.5548 55.9478,42.8881 57.5,45.5C 59.5,46.1667 61.5,46.8333 63.5,47.5C 61.901,47.2322 60.5676,47.5655 59.5,48.5C 56.1349,47.7635 52.8015,47.4302 49.5,47.5C 49.9767,46.5224 50.6433,45.6891 51.5,45C 49.4476,44.0701 47.9476,42.5701 47,40.5C 44.4636,44.5493 43.9636,48.8826 45.5,53.5C 47.5654,54.8567 49.5654,56.19 51.5,57.5C 50.1667,57.5 48.8333,57.5 47.5,57.5C 45.4705,56.7276 43.6371,57.3943 42,59.5C 40.7114,62.3508 40.2114,65.3508 40.5,68.5C 39.209,68.2627 38.209,68.596 37.5,69.5C 37.5,69.8333 37.5,70.1667 37.5,70.5C 36.3509,70.2089 35.6842,69.3756 35.5,68C 36.0767,65.863 36.41,63.6963 36.5,61.5C 34.2646,61.7947 32.2646,61.4614 30.5,60.5C 32.9496,60.702 35.283,60.3686 37.5,59.5C 40.3856,58.4036 42.3856,56.4036 43.5,53.5C 43.5,51.1667 43.5,48.8333 43.5,46.5C 41.5,46.5 39.5,46.5 37.5,46.5C 37.5,44.1667 37.5,41.8333 37.5,39.5C 34.8333,39.5 32.1667,39.5 29.5,39.5C 29.5,41.8333 29.5,44.1667 29.5,46.5C 27.1667,46.5 24.8333,46.5 22.5,46.5C 21.1667,45.1667 19.8333,43.8333 18.5,42.5C 18.5,41.8333 18.8333,41.5 19.5,41.5C 21.8227,39.6776 23.9893,37.6776 26,35.5C 27.4544,33.7561 27.6211,32.0894 26.5,30.5 Z"/></g>
<g><path style="opacity:1" fill="#32535c" d="M 43.5,29.5 C 43.5,29.1667 43.5,28.8333 43.5,28.5C 44.552,28.3505 45.552,28.5172 46.5,29C 47.0611,30.676 48.0611,32.0094 49.5,33C 62.5065,33.9029 62.5065,35.0695 49.5,36.5C 48.5041,36.5858 47.6708,36.2524 47,35.5C 46.5357,36.0944 46.369,36.7611 46.5,37.5C 45.6715,38.3324 44.8382,37.999 44,36.5C 41.7192,33.26 42.3859,32.26 46,33.5C 46.9098,31.0551 46.0764,29.7218 43.5,29.5 Z"/></g>
<g><path style="opacity:1" fill="#745d77" d="M 97.5,32.5 C 98.4884,33.795 99.4884,35.1283 100.5,36.5C 99.8333,36.5 99.1667,36.5 98.5,36.5C 97.6236,36.6309 96.9569,36.2975 96.5,35.5C 97.1272,34.5832 97.4606,33.5832 97.5,32.5 Z"/></g>
<g><path style="opacity:1" fill="#e6e9e9" d="M 49.5,36.5 C 58.3694,38.0346 67.036,37.7013 75.5,35.5C 76.643,36.6106 77.643,37.7772 78.5,39C 77.944,39.3826 77.6107,39.8826 77.5,40.5C 73.2593,41.6213 69.2593,43.2879 65.5,45.5C 62.8333,45.5 60.1667,45.5 57.5,45.5C 55.9478,42.8881 53.6145,41.5548 50.5,41.5C 50.5,40.5 50.5,39.5 50.5,38.5C 49.0413,38.5674 47.7079,38.2341 46.5,37.5C 46.369,36.7611 46.5357,36.0944 47,35.5C 47.6708,36.2524 48.5041,36.5858 49.5,36.5 Z"/></g>
<g><path style="opacity:1" fill="#2b282c" d="M 57.5,38.5 C 58.675,38.281 59.675,38.6143 60.5,39.5C 58.9483,40.7979 57.9483,40.4646 57.5,38.5 Z"/></g>
<g><path style="opacity:1" fill="#98a6a6" d="M 37.5,46.5 C 36.5386,44.7354 36.2053,42.7354 36.5,40.5C 34.5,40.5 32.5,40.5 30.5,40.5C 30.7947,42.7354 30.4614,44.7354 29.5,46.5C 29.5,44.1667 29.5,41.8333 29.5,39.5C 32.1667,39.5 34.8333,39.5 37.5,39.5C 37.5,41.8333 37.5,44.1667 37.5,46.5 Z"/></g>
<g><path style="opacity:1" fill="#f0f2f2" d="M 37.5,46.5 C 39.5,46.5 41.5,46.5 43.5,46.5C 43.5,48.8333 43.5,51.1667 43.5,53.5C 41.1667,53.5 38.8333,53.5 36.5,53.5C 36.3253,55.6208 36.6586,57.6208 37.5,59.5C 35.283,60.3686 32.9496,60.702 30.5,60.5C 29.8333,60.5 29.5,60.1667 29.5,59.5C 29.5,58.8333 29.5,58.1667 29.5,57.5C 29.5,56.1667 29.5,54.8333 29.5,53.5C 28.1667,53.5 26.8333,53.5 25.5,53.5C 24.8333,53.5 24.1667,53.5 23.5,53.5C 22.5655,52.4324 22.2322,51.099 22.5,49.5C 23.8734,49.6567 25.2068,49.49 26.5,49C 24.563,48.8784 23.2297,48.045 22.5,46.5C 24.8333,46.5 27.1667,46.5 29.5,46.5C 30.4614,44.7354 30.7947,42.7354 30.5,40.5C 32.5,40.5 34.5,40.5 36.5,40.5C 36.2053,42.7354 36.5386,44.7354 37.5,46.5 Z"/></g>
<g><path style="opacity:1" fill="#481835" d="M 98.5,36.5 C 99.1667,36.5 99.8333,36.5 100.5,36.5C 103.323,37.9923 104.99,40.3257 105.5,43.5C 105.631,44.2389 105.464,44.9056 105,45.5C 103.314,42.117 101.147,39.117 98.5,36.5 Z"/></g>
<g><path style="opacity:1" fill="#7e215f" d="M 19.5,35.5 C 20.675,35.281 21.675,35.6143 22.5,36.5C 21.0476,37.9397 20.0476,39.6064 19.5,41.5C 18.8333,41.5 18.5,41.8333 18.5,42.5C 17.2082,44.2549 16.2082,46.2549 15.5,48.5C 14.3058,46.4844 14.3058,44.4844 15.5,42.5C 16.8611,40.1495 18.1944,37.8162 19.5,35.5 Z"/></g>
<g><path style="opacity:1" fill="#141215" d="M 79.5,29.5 C 85.5,29.5 91.5,29.5 97.5,29.5C 97.5,30.5 97.5,31.5 97.5,32.5C 97.4606,33.5832 97.1272,34.5832 96.5,35.5C 96.9569,36.2975 97.6236,36.6309 98.5,36.5C 101.147,39.117 103.314,42.117 105,45.5C 105.464,44.9056 105.631,44.2389 105.5,43.5C 106.793,44.842 107.626,46.5087 108,48.5C 108.501,52.5101 109.001,56.5101 109.5,60.5C 106.486,57.9336 105.819,54.767 107.5,51C 105.89,45.4583 104.557,45.2916 103.5,50.5C 103.82,53.8984 103.487,57.2317 102.5,60.5C 102.251,59.4179 102.085,58.0846 102,56.5C 99.4428,55.3543 98.1095,56.3543 98,59.5C 97.6174,58.944 97.1174,58.6107 96.5,58.5C 95.1718,56.3411 93.3385,54.6745 91,53.5C 89.3009,53.3866 88.1342,54.0532 87.5,55.5C 87.1667,55.5 86.8333,55.5 86.5,55.5C 84.81,54.9829 83.1433,54.6495 81.5,54.5C 81.5,54.1667 81.5,53.8333 81.5,53.5C 87.1581,54.3206 88.8248,52.154 86.5,47C 84.4024,46.3224 82.4024,46.4891 80.5,47.5C 80.5,47.1667 80.5,46.8333 80.5,46.5C 80.6107,45.8826 80.944,45.3826 81.5,45C 79.3415,44.088 77.1748,43.2546 75,42.5C 73.4815,43.1634 72.3149,44.1634 71.5,45.5C 69.5,45.5 67.5,45.5 65.5,45.5C 69.2593,43.2879 73.2593,41.6213 77.5,40.5C 78.675,40.719 79.675,40.3857 80.5,39.5C 79.5155,37.4021 79.8489,35.4021 81.5,33.5C 80.3493,32.269 79.1827,32.269 78,33.5C 77.2274,31.6476 77.7274,30.3143 79.5,29.5 Z"/></g>
<g><path style="opacity:1" fill="#ebedec" d="M 87.5,41.5 C 91.2407,40.5985 93.2407,41.9319 93.5,45.5C 91.7354,46.4614 89.7354,46.7947 87.5,46.5C 87.5,44.8333 87.5,43.1667 87.5,41.5 Z"/></g>
<g><path style="opacity:1" fill="#8d969a" d="M 94.5,42.5 C 94.7373,43.791 94.404,44.791 93.5,45.5C 93.2407,41.9319 91.2407,40.5985 87.5,41.5C 90.1482,38.7376 92.4815,39.0709 94.5,42.5 Z"/></g>
<g><path style="opacity:1" fill="#501a36" d="M 94.5,42.5 C 92.4815,39.0709 90.1482,38.7376 87.5,41.5C 85.9719,41.4827 85.4719,40.816 86,39.5C 88.873,36.8997 91.7063,36.8997 94.5,39.5C 95.7759,40.6136 95.7759,41.6136 94.5,42.5 Z"/></g>
<g><path style="opacity:1" fill="#090f12" d="M 119.5,47.5 C 121.26,51.5465 122.26,55.8799 122.5,60.5C 122.674,68.7893 121.341,76.7893 118.5,84.5C 117.25,84.4226 116.417,83.756 116,82.5C 113.302,69.5124 110.802,56.5124 108.5,43.5C 108.67,42.1779 108.337,41.0113 107.5,40C 108.167,39.6667 108.833,39.3333 109.5,39C 108.747,34.9152 107.081,31.2485 104.5,28C 104.833,27.8333 105.167,27.6667 105.5,27.5C 106.927,30.0895 109.093,31.7562 112,32.5C 112.753,35.835 113.919,39.0016 115.5,42C 114.551,42.6172 113.718,42.4506 113,41.5C 112.167,42.3333 111.333,43.1667 110.5,44C 112.797,44.0178 115.131,43.8511 117.5,43.5C 116.833,45.8194 116.666,48.1527 117,50.5C 117.852,49.4293 118.685,48.4293 119.5,47.5 Z"/></g>
<g><path style="opacity:1" fill="#35595f" d="M 103.5,50.5 C 102.751,51.531 102.085,52.6976 101.5,54C 100.563,54.6917 99.8966,54.525 99.5,53.5C 101.922,51.0596 101.922,48.7263 99.5,46.5C 99.8966,45.475 100.563,45.3083 101.5,46C 102.582,47.3297 103.249,48.8297 103.5,50.5 Z"/></g>
<g><path style="opacity:1" fill="#0a090e" d="M 59.5,48.5 C 60.287,50.1042 61.6203,50.7709 63.5,50.5C 63.5,49.5 63.5,48.5 63.5,47.5C 61.5,46.8333 59.5,46.1667 57.5,45.5C 60.1667,45.5 62.8333,45.5 65.5,45.5C 67.5,45.5 69.5,45.5 71.5,45.5C 72.6491,45.7911 73.3158,46.6244 73.5,48C 72.6216,49.8001 71.955,51.6334 71.5,53.5C 72.8734,53.3433 74.2068,53.51 75.5,54C 74.0267,54.7096 73.3601,55.8762 73.5,57.5C 69.8254,57.5003 67.1587,59.167 65.5,62.5C 64.5655,63.5676 64.2322,64.901 64.5,66.5C 67.7973,66.3287 68.1306,66.9954 65.5,68.5C 66.3347,71.5818 68.3347,73.2485 71.5,73.5C 72.209,74.404 73.209,74.7373 74.5,74.5C 74.5,75.5 74.5,76.5 74.5,77.5C 71.1016,77.1796 67.7683,77.513 64.5,78.5C 68.7956,79.3275 73.1289,79.8275 77.5,80C 80.9868,80.9887 83.3201,83.1554 84.5,86.5C 82.4028,86.0033 80.5695,85.67 79,85.5C 78.5065,87.1341 78.3398,88.8008 78.5,90.5C 76.5168,90.1568 75.1834,90.8235 74.5,92.5C 73.5,92.5 72.5,92.5 71.5,92.5C 71.5,91.5 71.5,90.5 71.5,89.5C 73.099,89.7678 74.4324,89.4345 75.5,88.5C 69.5193,85.9954 63.5193,85.9954 57.5,88.5C 56.1964,87.0131 55.0298,85.3464 54,83.5C 53.586,83.9574 53.086,84.2907 52.5,84.5C 51.646,83.4783 50.646,82.6449 49.5,82C 54.3624,81.0395 58.8624,81.8729 63,84.5C 63.4482,82.7756 64.2815,82.109 65.5,82.5C 63.0034,81.4219 61.3367,79.5885 60.5,77C 57.7152,76.3425 55.0486,75.5091 52.5,74.5C 52.5,74.1667 52.5,73.8333 52.5,73.5C 53.4916,73.6716 54.1583,73.3382 54.5,72.5C 58.3654,69.6638 59.3654,65.9972 57.5,61.5C 56.1979,59.1782 54.1979,57.8449 51.5,57.5C 49.5654,56.19 47.5654,54.8567 45.5,53.5C 43.9636,48.8826 44.4636,44.5493 47,40.5C 47.9476,42.5701 49.4476,44.0701 51.5,45C 50.6433,45.6891 49.9767,46.5224 49.5,47.5C 52.8015,47.4302 56.1349,47.7635 59.5,48.5 Z"/></g>
<g><path style="opacity:1" fill="#c7cacb" d="M 63.5,47.5 C 63.5,48.5 63.5,49.5 63.5,50.5C 61.6203,50.7709 60.287,50.1042 59.5,48.5C 60.5676,47.5655 61.901,47.2322 63.5,47.5 Z"/></g>
<g><path style="opacity:1" fill="#4e595c" d="M 43.5,53.5 C 42.3856,56.4036 40.3856,58.4036 37.5,59.5C 36.6586,57.6208 36.3253,55.6208 36.5,53.5C 38.8333,53.5 41.1667,53.5 43.5,53.5 Z"/></g>
<g><path style="opacity:1" fill="#151316" d="M 37.5,54.5 C 40.9571,54.6672 41.2904,55.6672 38.5,57.5C 37.6143,56.675 37.281,55.675 37.5,54.5 Z"/></g>
<g><path style="opacity:1" fill="#418d9f" d="M 93.5,26.5 C 89.6249,26.0845 85.9582,26.5845 82.5,28C 87.0204,28.8136 91.3537,28.647 95.5,27.5C 98.6754,28.1824 100.175,30.1824 100,33.5C 103.543,36.2672 106.376,39.6005 108.5,43.5C 110.802,56.5124 113.302,69.5124 116,82.5C 116.417,83.756 117.25,84.4226 118.5,84.5C 118.5,84.8333 118.5,85.1667 118.5,85.5C 115.918,85.9746 113.918,85.3079 112.5,83.5C 113.895,85.0544 114.561,84.721 114.5,82.5C 113.735,78.3104 112.735,74.3104 111.5,70.5C 111.453,67.0314 110.787,63.698 109.5,60.5C 109.001,56.5101 108.501,52.5101 108,48.5C 107.626,46.5087 106.793,44.842 105.5,43.5C 104.99,40.3257 103.323,37.9923 100.5,36.5C 99.4884,35.1283 98.4884,33.795 97.5,32.5C 97.5,31.5 97.5,30.5 97.5,29.5C 91.5,29.5 85.5,29.5 79.5,29.5C 79.5,28.8333 79.5,28.1667 79.5,27.5C 84.1231,25.3887 88.7897,25.0553 93.5,26.5 Z"/></g>
<g><path style="opacity:1" fill="#181e25" d="M 25.5,53.5 C 26.8333,53.5 28.1667,53.5 29.5,53.5C 29.5,54.8333 29.5,56.1667 29.5,57.5C 27.1667,57.1667 25.8333,55.8333 25.5,53.5 Z"/></g>
<g><path style="opacity:1" fill="#44646c" d="M 23.5,53.5 C 24.1667,53.5 24.8333,53.5 25.5,53.5C 25.8333,55.8333 27.1667,57.1667 29.5,57.5C 29.5,58.1667 29.5,58.8333 29.5,59.5C 26.5,58.5 24.5,56.5 23.5,53.5 Z"/></g>
<g><path style="opacity:1" fill="#3d0e40" d="M 13.5,52.5 C 13.0578,56.1545 12.7244,59.8212 12.5,63.5C 11.8333,63.5 11.5,63.1667 11.5,62.5C 11.322,58.8776 11.9886,55.5443 13.5,52.5 Z"/></g>
<g><path style="opacity:1" fill="#8b8e8e" d="M 47.5,57.5 C 48.8333,57.5 50.1667,57.5 51.5,57.5C 54.1979,57.8449 56.1979,59.1782 57.5,61.5C 56.8826,61.6107 56.3826,61.944 56,62.5C 51.2032,58.1977 47.2032,58.8644 44,64.5C 43.5357,63.9056 43.369,63.2389 43.5,62.5C 44.1112,60.2254 45.4446,58.5588 47.5,57.5 Z"/></g>
<g><path style="opacity:1" fill="#551f3c" d="M 83.5,68.5 C 81.9397,66.8439 80.9397,64.8439 80.5,62.5C 79.853,60.8595 78.853,59.5261 77.5,58.5C 77.56,57.9569 77.8933,57.6236 78.5,57.5C 82.5932,60.0223 84.2599,63.6889 83.5,68.5 Z"/></g>
<g><path style="opacity:1" fill="#0b080d" d="M 15.5,42.5 C 14.3058,44.4844 14.3058,46.4844 15.5,48.5C 16.2082,46.2549 17.2082,44.2549 18.5,42.5C 19.8333,43.8333 21.1667,45.1667 22.5,46.5C 23.2297,48.045 24.563,48.8784 26.5,49C 25.2068,49.49 23.8734,49.6567 22.5,49.5C 22.2322,51.099 22.5655,52.4324 23.5,53.5C 24.5,56.5 26.5,58.5 29.5,59.5C 29.5,60.1667 29.8333,60.5 30.5,60.5C 32.2646,61.4614 34.2646,61.7947 36.5,61.5C 36.41,63.6963 36.0767,65.863 35.5,68C 35.6842,69.3756 36.3509,70.2089 37.5,70.5C 37.8333,70.5 38.1667,70.5 38.5,70.5C 37.4097,72.4367 36.0764,74.27 34.5,76C 36.3839,76.2163 38.0506,76.883 39.5,78C 38.1458,80.5478 36.4791,82.8811 34.5,85C 35.3366,86.0113 35.67,87.1779 35.5,88.5C 33.1667,88.5 30.8333,88.5 28.5,88.5C 25.3491,84.2007 21.0157,82.3673 15.5,83C 14.7709,80.9419 13.7709,79.1086 12.5,77.5C 11.4418,75.2276 11.4418,72.8942 12.5,70.5C 12.1667,69.5 11.8333,68.5 11.5,67.5C 8.98007,72.1313 7.98007,77.1313 8.5,82.5C 7.25133,79.9127 6.25133,77.246 5.5,74.5C 5.5,73.1667 5.5,71.8333 5.5,70.5C 5.3347,66.8183 5.50137,63.1516 6,59.5C 7.18612,61.6766 9.01945,62.6766 11.5,62.5C 11.5,63.1667 11.8333,63.5 12.5,63.5C 14.4098,59.1096 15.2431,54.4429 15,49.5C 14.6174,50.056 14.1174,50.3893 13.5,50.5C 13.6695,48.088 13.0028,45.9214 11.5,44C 12,42.5 12.5,41 13,39.5C 13.2355,41.1193 14.0689,42.1193 15.5,42.5 Z"/></g>
<g><path style="opacity:1" fill="#e7e9e9" d="M 57.5,61.5 C 59.3654,65.9972 58.3654,69.6638 54.5,72.5C 51.6085,71.5975 48.6085,71.2641 45.5,71.5C 43.1799,69.7739 40.5133,69.1072 37.5,69.5C 38.209,68.596 39.209,68.2627 40.5,68.5C 42.0603,66.8439 43.0603,64.8439 43.5,62.5C 43.369,63.2389 43.5357,63.9056 44,64.5C 47.2032,58.8644 51.2032,58.1977 56,62.5C 56.3826,61.944 56.8826,61.6107 57.5,61.5 Z"/></g>
<g><path style="opacity:1" fill="#edeeee" d="M 80.5,62.5 C 80.9417,66.3843 79.275,68.3843 75.5,68.5C 75.5,69.1667 75.5,69.8333 75.5,70.5C 74.0484,71.3019 72.3817,71.8019 70.5,72C 71.1667,72.3333 71.8333,72.6667 72.5,73C 72.2716,73.3988 71.9382,73.5654 71.5,73.5C 68.3347,73.2485 66.3347,71.5818 65.5,68.5C 68.1306,66.9954 67.7973,66.3287 64.5,66.5C 64.2322,64.901 64.5655,63.5676 65.5,62.5C 66.1174,62.6107 66.6174,62.944 67,63.5C 71,58.1667 75,58.1667 79,63.5C 79.3826,62.944 79.8826,62.6107 80.5,62.5 Z"/></g>
<g><path style="opacity:1" fill="#9d1d5e" d="M 12.5,63.5 C 12.7244,59.8212 13.0578,56.1545 13.5,52.5C 13.5,51.8333 13.5,51.1667 13.5,50.5C 14.1174,50.3893 14.6174,50.056 15,49.5C 15.2431,54.4429 14.4098,59.1096 12.5,63.5 Z"/></g>
<g><path style="opacity:1" fill="#8e9091" d="M 73.5,57.5 C 74.8333,57.8333 76.1667,58.1667 77.5,58.5C 78.853,59.5261 79.853,60.8595 80.5,62.5C 79.8826,62.6107 79.3826,62.944 79,63.5C 75,58.1667 71,58.1667 67,63.5C 66.6174,62.944 66.1174,62.6107 65.5,62.5C 67.1587,59.167 69.8254,57.5003 73.5,57.5 Z"/></g>
<g><path style="opacity:1" fill="#09080d" d="M 80.5,46.5 C 78.2549,48.4171 77.9215,50.7504 79.5,53.5C 79.9569,54.2975 80.6236,54.6309 81.5,54.5C 83.1433,54.6495 84.81,54.9829 86.5,55.5C 86.5569,56.609 86.8902,57.609 87.5,58.5C 85.9719,58.5173 85.4719,59.184 86,60.5C 88.1529,62.4439 90.6529,62.9439 93.5,62C 94.8228,61.1841 95.4894,60.0174 95.5,58.5C 95.8333,58.5 96.1667,58.5 96.5,58.5C 97.1174,58.6107 97.6174,58.944 98,59.5C 98.1095,56.3543 99.4428,55.3543 102,56.5C 102.085,58.0846 102.251,59.4179 102.5,60.5C 103.487,57.2317 103.82,53.8984 103.5,50.5C 104.557,45.2916 105.89,45.4583 107.5,51C 105.819,54.767 106.486,57.9336 109.5,60.5C 110.787,63.698 111.453,67.0314 111.5,70.5C 111.326,72.861 110.993,75.1944 110.5,77.5C 109.388,82.9325 106.054,84.9325 100.5,83.5C 99.5084,83.3284 98.8417,83.6618 98.5,84.5C 95.7509,85.3734 93.5842,84.3734 92,81.5C 91.3632,83.3031 90.1965,84.6364 88.5,85.5C 89.8333,87.1667 89.8333,88.8333 88.5,90.5C 89.311,91.2164 89.9777,92.0497 90.5,93C 89.3153,99.7393 88.6487,99.906 88.5,93.5C 86.396,93.7989 84.396,93.4656 82.5,92.5C 83.0253,91.8076 83.6919,91.3076 84.5,91C 83.2721,89.5098 83.2721,88.0098 84.5,86.5C 85.4584,86.9528 86.2917,87.6195 87,88.5C 87.1667,88.1667 87.3333,87.8333 87.5,87.5C 85.6375,85.1376 84.4709,82.4709 84,79.5C 82.8873,78.695 81.7206,78.0283 80.5,77.5C 79.6016,76.8423 78.6016,76.1757 77.5,75.5C 79.2065,74.1274 80.5398,72.4607 81.5,70.5C 82.8333,70.5 83.5,69.8333 83.5,68.5C 84.2599,63.6889 82.5932,60.0223 78.5,57.5C 77.8933,57.6236 77.56,57.9569 77.5,58.5C 76.1667,58.1667 74.8333,57.8333 73.5,57.5C 73.3601,55.8762 74.0267,54.7096 75.5,54C 74.2068,53.51 72.8734,53.3433 71.5,53.5C 71.955,51.6334 72.6216,49.8001 73.5,48C 73.3158,46.6244 72.6491,45.7911 71.5,45.5C 72.3149,44.1634 73.4815,43.1634 75,42.5C 77.1748,43.2546 79.3415,44.088 81.5,45C 80.944,45.3826 80.6107,45.8826 80.5,46.5 Z"/></g>
<g><path style="opacity:1" fill="#4e1931" d="M 87.5,58.5 C 87.9623,59.8799 88.9623,60.5466 90.5,60.5C 92.1772,59.8131 93.8439,59.1465 95.5,58.5C 95.4894,60.0174 94.8228,61.1841 93.5,62C 90.6529,62.9439 88.1529,62.4439 86,60.5C 85.4719,59.184 85.9719,58.5173 87.5,58.5 Z"/></g>
<g><path style="opacity:1" fill="#cecccf" d="M 95.5,58.5 C 93.8439,59.1465 92.1772,59.8131 90.5,60.5C 88.9623,60.5466 87.9623,59.8799 87.5,58.5C 86.8902,57.609 86.5569,56.609 86.5,55.5C 86.8333,55.5 87.1667,55.5 87.5,55.5C 88.5832,55.4606 89.5832,55.1272 90.5,54.5C 92.21,55.8872 93.8767,57.2206 95.5,58.5 Z"/></g>
<g><path style="opacity:1" fill="#96a0a1" d="M 96.5,58.5 C 96.1667,58.5 95.8333,58.5 95.5,58.5C 93.8767,57.2206 92.21,55.8872 90.5,54.5C 89.5832,55.1272 88.5832,55.4606 87.5,55.5C 88.1342,54.0532 89.3009,53.3866 91,53.5C 93.3385,54.6745 95.1718,56.3411 96.5,58.5 Z"/></g>
<g><path style="opacity:1" fill="#c3cccc" d="M 81.5,53.5 C 80.6586,51.6208 80.3253,49.6208 80.5,47.5C 82.4024,46.4891 84.4024,46.3224 86.5,47C 88.8248,52.154 87.1581,54.3206 81.5,53.5 Z"/></g>
<g><path style="opacity:1" fill="#d9dfde" d="M 99.5,46.5 C 101.922,48.7263 101.922,51.0596 99.5,53.5C 94.6724,53.6148 93.3391,51.4481 95.5,47C 96.7932,46.51 98.1266,46.3433 99.5,46.5 Z"/></g>
<g><path style="opacity:1" fill="#415c64" d="M 80.5,46.5 C 80.5,46.8333 80.5,47.1667 80.5,47.5C 80.3253,49.6208 80.6586,51.6208 81.5,53.5C 81.5,53.8333 81.5,54.1667 81.5,54.5C 80.6236,54.6309 79.9569,54.2975 79.5,53.5C 77.9215,50.7504 78.2549,48.4171 80.5,46.5 Z"/></g>
<g><path style="opacity:1" fill="#3d5960" d="M 47.5,57.5 C 45.4446,58.5588 44.1112,60.2254 43.5,62.5C 43.0603,64.8439 42.0603,66.8439 40.5,68.5C 40.2114,65.3508 40.7114,62.3508 42,59.5C 43.6371,57.3943 45.4705,56.7276 47.5,57.5 Z"/></g>
<g><path style="opacity:1" fill="#6a1545" d="M 7.5,63.5 C 8.5,63.5 9.5,63.5 10.5,63.5C 9.052,69.969 8.052,69.969 7.5,63.5 Z"/></g>
<g><path style="opacity:1" fill="#b6b5b8" d="M 80.5,62.5 C 80.9397,64.8439 81.9397,66.8439 83.5,68.5C 83.5,69.8333 82.8333,70.5 81.5,70.5C 78.9959,71.5839 76.6626,72.9172 74.5,74.5C 73.209,74.7373 72.209,74.404 71.5,73.5C 71.9382,73.5654 72.2716,73.3988 72.5,73C 71.8333,72.6667 71.1667,72.3333 70.5,72C 72.3817,71.8019 74.0484,71.3019 75.5,70.5C 79.5,69.8333 79.5,69.1667 75.5,68.5C 79.275,68.3843 80.9417,66.3843 80.5,62.5 Z"/></g>
<g><path style="opacity:1" fill="#453e42" d="M 75.5,68.5 C 79.5,69.1667 79.5,69.8333 75.5,70.5C 75.5,69.8333 75.5,69.1667 75.5,68.5 Z"/></g>
<g><path style="opacity:1" fill="#3e5157" d="M 37.5,70.5 C 37.5,70.1667 37.5,69.8333 37.5,69.5C 40.5133,69.1072 43.1799,69.7739 45.5,71.5C 45.6107,72.1174 45.944,72.6174 46.5,73C 48.4727,73.4955 50.4727,73.6621 52.5,73.5C 52.5,73.8333 52.5,74.1667 52.5,74.5C 50.9397,74.5191 49.4397,74.8524 48,75.5C 44.9074,73.5454 41.7408,71.8788 38.5,70.5C 38.1667,70.5 37.8333,70.5 37.5,70.5 Z"/></g>
<g><path style="opacity:1" fill="#979b9c" d="M 45.5,71.5 C 48.6085,71.2641 51.6085,71.5975 54.5,72.5C 54.1583,73.3382 53.4916,73.6716 52.5,73.5C 50.4727,73.6621 48.4727,73.4955 46.5,73C 45.944,72.6174 45.6107,72.1174 45.5,71.5 Z"/></g>
<g><path style="opacity:1" fill="#481c30" d="M 81.5,70.5 C 80.5398,72.4607 79.2065,74.1274 77.5,75.5C 78.6016,76.1757 79.6016,76.8423 80.5,77.5C 78.5,77.5 76.5,77.5 74.5,77.5C 74.5,76.5 74.5,75.5 74.5,74.5C 76.6626,72.9172 78.9959,71.5839 81.5,70.5 Z"/></g>
<g><path style="opacity:1" fill="#020405" d="M -0.5,75.5 C 0.166667,76.5 0.833333,77.5 1.5,78.5C 2.16667,80.8333 2.83333,83.1667 3.5,85.5C 11.6379,108.972 27.9712,122.639 52.5,126.5C 52.5,126.833 52.5,127.167 52.5,127.5C 34.8333,127.5 17.1667,127.5 -0.5,127.5C -0.5,110.167 -0.5,92.8333 -0.5,75.5 Z"/></g>
<g><path style="opacity:1" fill="#77194a" d="M 74.5,77.5 C 76.5,77.5 78.5,77.5 80.5,77.5C 81.7206,78.0283 82.8873,78.695 84,79.5C 84.4709,82.4709 85.6375,85.1376 87.5,87.5C 87.3333,87.8333 87.1667,88.1667 87,88.5C 86.2917,87.6195 85.4584,86.9528 84.5,86.5C 83.3201,83.1554 80.9868,80.9887 77.5,80C 73.1289,79.8275 68.7956,79.3275 64.5,78.5C 67.7683,77.513 71.1016,77.1796 74.5,77.5 Z"/></g>
<g><path style="opacity:1" fill="#14373f" d="M 111.5,70.5 C 112.735,74.3104 113.735,78.3104 114.5,82.5C 114.561,84.721 113.895,85.0544 112.5,83.5C 112.946,80.9899 112.28,78.9899 110.5,77.5C 110.993,75.1944 111.326,72.861 111.5,70.5 Z"/></g>
<g><path style="opacity:1" fill="#040808" d="M 127.5,79.5 C 127.5,95.5 127.5,111.5 127.5,127.5C 102.5,127.5 77.5,127.5 52.5,127.5C 52.5,127.167 52.5,126.833 52.5,126.5C 60.6841,126.826 68.6841,126.492 76.5,125.5C 98.9527,122.05 114.286,109.717 122.5,88.5C 124.655,86.3826 125.655,83.716 125.5,80.5C 126.167,80.1667 126.833,79.8333 127.5,79.5 Z"/></g>
<g><path style="opacity:1" fill="#6e1648" d="M 12.5,77.5 C 10.783,80.8448 10.1164,84.5115 10.5,88.5C 9.5418,86.6976 8.87513,84.6976 8.5,82.5C 7.98007,77.1313 8.98007,72.1313 11.5,67.5C 11.8333,68.5 12.1667,69.5 12.5,70.5C 11.4418,72.8942 11.4418,75.2276 12.5,77.5 Z"/></g>
<g><path style="opacity:1" fill="#124240" d="M 125.5,80.5 C 125.655,83.716 124.655,86.3826 122.5,88.5C 123.129,85.6027 124.129,82.936 125.5,80.5 Z"/></g>
<g><path style="opacity:1" fill="#347185" d="M 100.5,83.5 C 101.398,84.1577 102.398,84.8243 103.5,85.5C 103.376,86.1067 103.043,86.44 102.5,86.5C 101.167,85.8333 99.8333,85.1667 98.5,84.5C 98.8417,83.6618 99.5084,83.3284 100.5,83.5 Z"/></g>
<g><path style="opacity:1" fill="#41cfe5" d="M 110.5,77.5 C 112.28,78.9899 112.946,80.9899 112.5,83.5C 113.918,85.3079 115.918,85.9746 118.5,85.5C 118.25,87.674 117.25,89.3406 115.5,90.5C 115.762,89.0222 115.429,87.6888 114.5,86.5C 113.686,88.7662 113.186,91.0995 113,93.5C 112.667,92.1667 112.333,90.8333 112,89.5C 109.57,97.4679 104.737,99.4679 97.5,95.5C 96.5313,94.6906 95.6979,93.6906 95,92.5C 94.6667,93.1667 94.3333,93.8333 94,94.5C 93.79,92.9419 93.29,91.6085 92.5,90.5C 94.8913,87.083 98.2246,85.7497 102.5,86.5C 103.043,86.44 103.376,86.1067 103.5,85.5C 102.398,84.8243 101.398,84.1577 100.5,83.5C 106.054,84.9325 109.388,82.9325 110.5,77.5 Z"/></g>
<g><path style="opacity:1" fill="#861256" d="M 10.5,89.5 C 10.5,89.1667 10.5,88.8333 10.5,88.5C 13.8333,88.5 17.1667,88.5 20.5,88.5C 20.5,89.5 20.5,90.5 20.5,91.5C 17.6122,90.9898 15.2789,91.6565 13.5,93.5C 12.8333,93.5 12.5,93.1667 12.5,92.5C 13.2297,90.955 14.563,90.1216 16.5,90C 14.5273,89.5045 12.5273,89.3379 10.5,89.5 Z"/></g>
<g><path style="opacity:1" fill="#981d5b" d="M 28.5,88.5 C 30.8333,88.5 33.1667,88.5 35.5,88.5C 36.404,89.209 36.7373,90.209 36.5,91.5C 36.1667,91.5 35.8333,91.5 35.5,91.5C 34.8333,91.5 34.1667,91.5 33.5,91.5C 32.8333,91.5 32.1667,91.5 31.5,91.5C 32.6085,90.71 33.9419,90.21 35.5,90C 32.9644,89.8138 30.631,89.3138 28.5,88.5 Z"/></g>
<g><path style="opacity:1" fill="#1c1320" d="M 10.5,89.5 C 12.5273,89.3379 14.5273,89.5045 16.5,90C 14.563,90.1216 13.2297,90.955 12.5,92.5C 11.5987,91.7095 10.9321,90.7095 10.5,89.5 Z"/></g>
<g><path style="opacity:1" fill="#e90f88" d="M 12.5,77.5 C 13.7709,79.1086 14.7709,80.9419 15.5,83C 21.0157,82.3673 25.3491,84.2007 28.5,88.5C 30.631,89.3138 32.9644,89.8138 35.5,90C 33.9419,90.21 32.6085,90.71 31.5,91.5C 31.5,92.1667 31.1667,92.5 30.5,92.5C 27.8858,92.2771 26.2191,93.4438 25.5,96C 21.2381,96.9166 17.2381,96.4166 13.5,94.5C 13.5,94.1667 13.5,93.8333 13.5,93.5C 15.2789,91.6565 17.6122,90.9898 20.5,91.5C 20.5,90.5 20.5,89.5 20.5,88.5C 17.1667,88.5 13.8333,88.5 10.5,88.5C 10.1164,84.5115 10.783,80.8448 12.5,77.5 Z"/></g>
<g><path style="opacity:1" fill="#46a4b2" d="M 92.5,90.5 C 93.29,91.6085 93.79,92.9419 94,94.5C 94.3333,93.8333 94.6667,93.1667 95,92.5C 95.6979,93.6906 96.5313,94.6906 97.5,95.5C 96.6676,96.3285 97.001,97.1618 98.5,98C 101.953,100.136 105.287,99.9692 108.5,97.5C 109.107,97.6236 109.44,97.9569 109.5,98.5C 106.406,100.347 103.072,100.847 99.5,100C 96.9648,97.9629 94.2981,96.1296 91.5,94.5C 91.76,93.0951 92.0934,91.7618 92.5,90.5 Z"/></g>
<g><path style="opacity:1" fill="#787480" d="M 33.5,91.5 C 34.1667,91.5 34.8333,91.5 35.5,91.5C 35.2893,93.4241 34.6226,93.7574 33.5,92.5C 33.5,92.1667 33.5,91.8333 33.5,91.5 Z"/></g>
<g><path style="opacity:1" fill="#225f6e" d="M 115.5,90.5 C 114.59,93.9922 112.924,96.9922 110.5,99.5C 110.5,98.8333 110.167,98.5 109.5,98.5C 109.44,97.9569 109.107,97.6236 108.5,97.5C 105.287,99.9692 101.953,100.136 98.5,98C 97.001,97.1618 96.6676,96.3285 97.5,95.5C 104.737,99.4679 109.57,97.4679 112,89.5C 112.333,90.8333 112.667,92.1667 113,93.5C 113.186,91.0995 113.686,88.7662 114.5,86.5C 115.429,87.6888 115.762,89.0222 115.5,90.5 Z"/></g>
<g><path style="opacity:1" fill="#276f7c" d="M 102.5,93.5 C 104.288,93.2148 105.955,93.5481 107.5,94.5C 106.667,94.8333 105.833,95.1667 105,95.5C 103.624,95.3158 102.791,94.6491 102.5,93.5 Z"/></g>
<g><path style="opacity:1" fill="#8a1759" d="M 30.5,92.5 C 28.3581,98.4173 24.0247,101.084 17.5,100.5C 16.1667,98.5 14.8333,96.5 13.5,94.5C 17.2381,96.4166 21.2381,96.9166 25.5,96C 26.2191,93.4438 27.8858,92.2771 30.5,92.5 Z"/></g>
<g><path style="opacity:1" fill="#1e0f19" d="M 31.5,91.5 C 32.1667,91.5 32.8333,91.5 33.5,91.5C 33.5,91.8333 33.5,92.1667 33.5,92.5C 32.6282,93.6124 32.6282,94.9458 33.5,96.5C 32.8848,98.1161 31.8848,99.4495 30.5,100.5C 26.9284,101.681 23.2617,102.348 19.5,102.5C 18.5,102.167 17.8333,101.5 17.5,100.5C 24.0247,101.084 28.3581,98.4173 30.5,92.5C 31.1667,92.5 31.5,92.1667 31.5,91.5 Z"/></g>
<g><path style="opacity:1" fill="#080d11" d="M 38.5,70.5 C 41.7408,71.8788 44.9074,73.5454 48,75.5C 49.4397,74.8524 50.9397,74.5191 52.5,74.5C 55.0486,75.5091 57.7152,76.3425 60.5,77C 61.3367,79.5885 63.0034,81.4219 65.5,82.5C 64.2815,82.109 63.4482,82.7756 63,84.5C 58.8624,81.8729 54.3624,81.0395 49.5,82C 50.646,82.6449 51.646,83.4783 52.5,84.5C 53.086,84.2907 53.586,83.9574 54,83.5C 55.0298,85.3464 56.1964,87.0131 57.5,88.5C 57.6602,90.1992 57.4935,91.8659 57,93.5C 54.2937,86.872 52.7937,87.0387 52.5,94C 52.7913,101.03 53.7913,101.196 55.5,94.5C 56.7051,95.5769 57.3718,96.9102 57.5,98.5C 58.5676,99.4345 59.901,99.7678 61.5,99.5C 61.89,96.2033 62.89,93.2033 64.5,90.5C 65.1667,102.5 65.8333,102.5 66.5,90.5C 68.11,93.2033 69.11,96.2033 69.5,99.5C 71.924,99.8076 74.2573,99.4742 76.5,98.5C 74.9547,97.5481 73.288,97.2148 71.5,97.5C 71.5,96.5 71.5,95.5 71.5,94.5C 73.1788,94.7148 74.1788,94.0481 74.5,92.5C 75.1834,90.8235 76.5168,90.1568 78.5,90.5C 78.3398,88.8008 78.5065,87.1341 79,85.5C 80.5695,85.67 82.4028,86.0033 84.5,86.5C 83.2721,88.0098 83.2721,89.5098 84.5,91C 83.6919,91.3076 83.0253,91.8076 82.5,92.5C 84.396,93.4656 86.396,93.7989 88.5,93.5C 88.6487,99.906 89.3153,99.7393 90.5,93C 89.9777,92.0497 89.311,91.2164 88.5,90.5C 89.8333,88.8333 89.8333,87.1667 88.5,85.5C 90.1965,84.6364 91.3632,83.3031 92,81.5C 93.5842,84.3734 95.7509,85.3734 98.5,84.5C 99.8333,85.1667 101.167,85.8333 102.5,86.5C 98.2246,85.7497 94.8913,87.083 92.5,90.5C 92.0934,91.7618 91.76,93.0951 91.5,94.5C 94.2981,96.1296 96.9648,97.9629 99.5,100C 103.072,100.847 106.406,100.347 109.5,98.5C 110.167,98.5 110.5,98.8333 110.5,99.5C 110.158,100.338 109.492,100.672 108.5,100.5C 105.253,101.252 101.919,101.752 98.5,102C 101.695,102.181 104.695,102.681 107.5,103.5C 100.665,111.089 92.3321,116.423 82.5,119.5C 57.6855,127.346 36.6855,121.68 19.5,102.5C 23.2617,102.348 26.9284,101.681 30.5,100.5C 31.8848,99.4495 32.8848,98.1161 33.5,96.5C 32.6282,94.9458 32.6282,93.6124 33.5,92.5C 34.6226,93.7574 35.2893,93.4241 35.5,91.5C 35.8333,91.5 36.1667,91.5 36.5,91.5C 36.7373,90.209 36.404,89.209 35.5,88.5C 35.67,87.1779 35.3366,86.0113 34.5,85C 36.4791,82.8811 38.1458,80.5478 39.5,78C 38.0506,76.883 36.3839,76.2163 34.5,76C 36.0764,74.27 37.4097,72.4367 38.5,70.5 Z"/></g>
<g><path style="opacity:1" fill="#2b959f" d="M 57.5,88.5 C 57.8333,88.5 58.1667,88.5 58.5,88.5C 58.8128,92.0419 58.4794,95.3752 57.5,98.5C 57.3718,96.9102 56.7051,95.5769 55.5,94.5C 53.7913,101.196 52.7913,101.03 52.5,94C 52.7937,87.0387 54.2937,86.872 57,93.5C 57.4935,91.8659 57.6602,90.1992 57.5,88.5 Z"/></g>
<g><path style="opacity:1" fill="#2b8992" d="M 75.5,88.5 C 74.4324,89.4345 73.099,89.7678 71.5,89.5C 71.5,90.5 71.5,91.5 71.5,92.5C 72.5,92.5 73.5,92.5 74.5,92.5C 74.1788,94.0481 73.1788,94.7148 71.5,94.5C 71.5,95.5 71.5,96.5 71.5,97.5C 73.288,97.2148 74.9547,97.5481 76.5,98.5C 74.2573,99.4742 71.924,99.8076 69.5,99.5C 69.5,95.8333 69.5,92.1667 69.5,88.5C 71.5,88.5 73.5,88.5 75.5,88.5 Z"/></g>
<g><path style="opacity:1" fill="#686b6d" d="M 36.5,91.5 C 38.4584,91.908 40.4584,92.2413 42.5,92.5C 41.5,92.8333 40.5,93.1667 39.5,93.5C 37.9704,93.3601 36.9704,92.6935 36.5,91.5 Z"/></g>
<g><path style="opacity:1" fill="#0b2025" d="M 75.5,88.5 C 73.5,88.5 71.5,88.5 69.5,88.5C 69.5,92.1667 69.5,95.8333 69.5,99.5C 69.11,96.2033 68.11,93.2033 66.5,90.5C 66.9175,89.7784 67.5842,89.2784 68.5,89C 66.5,88.3333 64.5,88.3333 62.5,89C 63.4158,89.2784 64.0825,89.7784 64.5,90.5C 62.89,93.2033 61.89,96.2033 61.5,99.5C 61.5,95.8333 61.5,92.1667 61.5,88.5C 60.5,88.5 59.5,88.5 58.5,88.5C 58.1667,88.5 57.8333,88.5 57.5,88.5C 63.5193,85.9954 69.5193,85.9954 75.5,88.5 Z"/></g>
<g><path style="opacity:1" fill="#278591" d="M 66.5,90.5 C 65.8333,102.5 65.1667,102.5 64.5,90.5C 64.0825,89.7784 63.4158,89.2784 62.5,89C 64.5,88.3333 66.5,88.3333 68.5,89C 67.5842,89.2784 66.9175,89.7784 66.5,90.5 Z"/></g>
<g><path style="opacity:1" fill="#457d8e" d="M 43.5,76.5 C 47.3019,76.7603 50.9686,77.5936 54.5,79C 46.8766,78.2287 41.0432,81.0621 37,87.5C 37.2776,82.7699 39.4443,79.1033 43.5,76.5 Z"/></g>
<g><path style="opacity:1" fill="#2b828c" d="M 45.5,88.5 C 47.3878,90.9878 48.0545,93.9878 47.5,97.5C 48.5,97.5 49.5,97.5 50.5,97.5C 50.3354,94.4816 50.502,91.4816 51,88.5C 51.6667,91.8333 51.6667,95.1667 51,98.5C 49.3333,99.8333 47.6667,99.8333 46,98.5C 45.5017,95.1832 45.335,91.8499 45.5,88.5 Z"/></g>
<g><path style="opacity:1" fill="#216d79" d="M 58.5,88.5 C 59.5,88.5 60.5,88.5 61.5,88.5C 61.5,92.1667 61.5,95.8333 61.5,99.5C 59.901,99.7678 58.5676,99.4345 57.5,98.5C 58.4794,95.3752 58.8128,92.0419 58.5,88.5 Z"/></g>
<g><path style="opacity:1" fill="#356b7d" d="M 108.5,100.5 C 108.737,101.791 108.404,102.791 107.5,103.5C 104.695,102.681 101.695,102.181 98.5,102C 101.919,101.752 105.253,101.252 108.5,100.5 Z"/></g>
<g><path style="opacity:1" fill="#2ee3e9" d="M 5.5,74.5 C 6.25133,77.246 7.25133,79.9127 8.5,82.5C 8.87513,84.6976 9.5418,86.6976 10.5,88.5C 10.5,88.8333 10.5,89.1667 10.5,89.5C 10.9321,90.7095 11.5987,91.7095 12.5,92.5C 12.5,93.1667 12.8333,93.5 13.5,93.5C 13.5,93.8333 13.5,94.1667 13.5,94.5C 14.8333,96.5 16.1667,98.5 17.5,100.5C 17.8333,101.5 18.5,102.167 19.5,102.5C 36.6855,121.68 57.6855,127.346 82.5,119.5C 79.9825,121.735 76.9825,123.235 73.5,124C 73.1667,124.333 72.8333,124.667 72.5,125C 73.7932,125.49 75.1266,125.657 76.5,125.5C 68.6841,126.492 60.6841,126.826 52.5,126.5C 27.9712,122.639 11.6379,108.972 3.5,85.5C 4.5,85.5 5.5,85.5 6.5,85.5C 5.75638,81.8815 5.42305,78.2148 5.5,74.5 Z"/></g>
<g><path style="opacity:1" fill="#2ce6ec" d="M 125.5,52.5 C 126.626,61.6755 126.626,71.0088 125.5,80.5C 124.129,82.936 123.129,85.6027 122.5,88.5C 114.286,109.717 98.9527,122.05 76.5,125.5C 75.1266,125.657 73.7932,125.49 72.5,125C 72.8333,124.667 73.1667,124.333 73.5,124C 76.9825,123.235 79.9825,121.735 82.5,119.5C 92.3321,116.423 100.665,111.089 107.5,103.5C 108.404,102.791 108.737,101.791 108.5,100.5C 109.492,100.672 110.158,100.338 110.5,99.5C 112.924,96.9922 114.59,93.9922 115.5,90.5C 117.25,89.3406 118.25,87.674 118.5,85.5C 118.5,85.1667 118.5,84.8333 118.5,84.5C 121.341,76.7893 122.674,68.7893 122.5,60.5C 123.222,64.3908 124.056,68.3908 125,72.5C 125.5,65.8417 125.666,59.175 125.5,52.5 Z"/></g>
</svg>
